<svg xmlns="http://www.w3.org/2000/svg" width="384" height="384" viewBox="0 0 384 384">
  <defs>
    <linearGradient id="bg" x1="0%" y1="0%" x2="100%" y2="100%">
      <stop offset="0%" style="stop-color:#7C3AED"/>
      <stop offset="100%" style="stop-color:#A855F7"/>
    </linearGradient>
  </defs>
  <rect width="384" height="384" fill="url(#bg)" rx="69"/>
  <g transform="translate(192, 192) scale(3.08)">
    <!-- Book -->
    <path d="M-30 -20 C-30 -22 -28 -24 -26 -24 L-2 -24 C0 -24 0 -22 0 -20 L0 24 C0 22 -2 20 -4 20 L-26 20 C-28 20 -30 18 -30 16 Z" fill="white" opacity="0.95"/>
    <path d="M30 -20 C30 -22 28 -24 26 -24 L2 -24 C0 -24 0 -22 0 -20 L0 24 C0 22 2 20 4 20 L26 20 C28 20 30 18 30 16 Z" fill="white" opacity="0.85"/>
    <!-- Book lines -->
    <line x1="-24" y1="-14" x2="-6" y2="-14" stroke="#A855F7" stroke-width="2" stroke-linecap="round"/>
    <line x1="-24" y1="-6" x2="-6" y2="-6" stroke="#C084FC" stroke-width="2" stroke-linecap="round"/>
    <line x1="-24" y1="2" x2="-12" y2="2" stroke="#C084FC" stroke-width="2" stroke-linecap="round"/>
    <!-- Sparkles -->
    <circle cx="20" cy="-30" r="3" fill="#FBBF24"/>
    <circle cx="28" cy="-18" r="2" fill="#FBBF24"/>
    <circle cx="-28" cy="-32" r="2.5" fill="#FCD34D"/>
    <circle cx="14" cy="-36" r="1.5" fill="#FDE68A"/>
    <!-- Star -->
    <path d="M22 -8 L23.5 -3 L28.5 -3 L24.5 0.5 L26 5.5 L22 2.5 L18 5.5 L19.5 0.5 L15.5 -3 L20.5 -3 Z" fill="#FBBF24"/>
  </g>
</svg>